{"title":"Daal Mai Kuch Kala Hai 2012 CamRip (ICTV)","uid":7426887,"size":711444484,"categoryP":"video","categoryS":"movies","magnet":"?xt=urn:btih:0b7e801dfb01fdc12467c94eec518d5642669b3a&amp;dn=Daal+Mai+Kuch+Kala+Hai+2012+CamRip+%28ICTV%29&amp;tr=udp%3A%2F%2Ftracker.openbittorrent.com%3A80&amp;tr=udp%3A%2F%2Fopen.demonii.com%3A1337&amp;tr=udp%3A%2F%2Ftracker.coppersurfer.tk%3A6969&amp;tr=udp%3A%2F%2Fexodus.desync.com%3A6969","seeders":0,"leechers":0,"uploader":"SJonam","files":1,"time":1341829870,"description":" &lt;a href=&quot;\nhttp://desibbrg.org/images/66952052392581364616.gif&quot; rel=&quot;nofollow&quot; target=&quot;_NEW&quot;&gt;\nhttp://desibbrg.org/images/66952052392581364616.gif&lt;/a&gt;\n &lt;a href=&quot;\nhttp://desibbrg.org/images/60481437815190093293.jpg&quot; rel=&quot;nofollow&quot; target=&quot;_NEW&quot;&gt;\nhttp://desibbrg.org/images/60481437815190093293.jpg&lt;/a&gt;\n &lt;a href=&quot;\nhttp://desibbrg.org/images/56119874706607993986.jpg&quot; rel=&quot;nofollow&quot; target=&quot;_NEW&quot;&gt;\nhttp://desibbrg.org/images/56119874706607993986.jpg&lt;/a&gt;\n\n\nMedia Info - \nGeneral\nComplete name                    : /Daal Mai Kuch Kala Hai (2012) Cam Rip - Team IcTv.mpg\nFormat                           : MPEG-PS\nFile size                        : 678 MiB\nDuration                         : 1h 55mn\nOverall bit rate                 : 823 Kbps\nWriting library                  : encoded by TMPGEnc Video Mastering Works 5 Version. 5.0.5.32\n\nVideo\nID                               : 224 (0xE0)\nFormat                           : MPEG Video\nFormat version                   : Version 1\nFormat settings, BVOP            : Yes\nFormat settings, Matrix          : Default\nDuration                         : 1h 55mn\nBit rate mode                    : Variable\nBit rate                         : 746 Kbps\nWidth                            : 352 pixels\nHeight                           : 288 pixels\nDisplay aspect ratio             : 4:3\nFrame rate                       : 25.000 fps\nStandard                         : PAL\nColor space                      : YUV\nBit depth                        : 8 bits\nScan type                        : Progressive\nCompression mode                 : Lossy\nBits/(Pixel*Frame)               : 0.295\nStream size                      : 612 MiB (90%)\nWriting library                  : TMPGEnc Video Mastering Works 5 Version. 5.0.5.32\n\nAudio\nID                               : 192 (0xC0)\nFormat                           : MPEG Audio\nFormat version                   : Version 1\nFormat profile                   : Layer 2\nDuration                         : 1h 55mn\nBit rate mode                    : Constant\nBit rate                         : 64.0 Kbps\nChannel(s)                       : 2 channels\nSampling rate                    : 48.0 KHz\nCompression mode                 : Lossy\nStream size                      : 52.8 MiB (8%)\n\nRipper : Pokar\n\nSeeding 24x7... Extreme Seeding...\n\n\nEnjoy!\n","torrent":{"xt":"urn:btih:0b7e801dfb01fdc12467c94eec518d5642669b3a","amp;dn":"Daal+Mai+Kuch+Kala+Hai+2012+CamRip+%28ICTV%29","amp;tr":["udp%3A%2F%2Ftracker.openbittorrent.com%3A80","udp%3A%2F%2Fopen.demonii.com%3A1337","udp%3A%2F%2Ftracker.coppersurfer.tk%3A6969","udp%3A%2F%2Fexodus.desync.com%3A6969"],"infoHash":"0b7e801dfb01fdc12467c94eec518d5642669b3a","infoHashBuffer":{"type":"Buffer","data":[11,126,128,29,251,1,253,193,36,103,201,78,236,81,141,86,66,102,155,58]},"announce":[],"urlList":[]}}